<?xml version="1.0" standalone="yes"?>
<svg xmlns="http://www.w3.org/2000/svg" width="512" height="512">
  <path style="fill:#ebb53f; stroke:none;" d="M240 17.3889C220.731 20.5557 201.871 22.0593 183 28C127.927 45.3379 79.9848 83.4441 50.3889 133C-29.2665 266.376 42.515 449.109 195 487.583C226.212 495.459 259.162 497.273 291 492.778C412.361 475.641 502.019 363.758 494.972 242C489.099 140.508 417.642 52.9598 320 25.6111C295.55 18.7628 265.409 13.2129 240 17.3889z"/>
  <path style="fill:#434244; stroke:none;" d="M180 114.639C171.675 118.004 173.067 126.745 173 134C172.871 147.975 169.932 163.034 172.389 177C173.825 185.162 180.197 191.462 189 188.5C193.101 187.12 196.334 183.269 196.917 179C198.538 167.129 197 153.989 197 142C197 135.794 198.274 127.934 196.278 122C194.093 115.507 186.436 112.038 180 114.639z"/>
  <path style="fill:#434244; stroke:none;" d="M327 114.5C320.269 116.936 319.058 124.756 319 131C318.862 145.874 316.551 163.406 319.389 178C320.943 185.991 327.747 191.277 336 188.5C341.04 186.804 343.668 182.061 343.972 177C344.689 165.092 344 152.931 344 141C344 135.08 345.184 127.665 343.278 122C341.084 115.481 333.49 112.151 327 114.5z"/>
  <path style="fill:#d95241; stroke:none;" d="M344 139C344 151.253 350.565 188.491 332 189.694C326.028 190.082 320.77 184.363 319.417 179C316.397 167.03 319 151.348 319 139L234 139C224.545 139 207.794 135.705 199.111 139.333C195.495 140.844 197 148.827 197 152C197 162.506 201.745 190.886 184 189.694C178.396 189.318 173.723 184.179 172.417 179C169.397 167.03 172 151.348 172 139C159.672 139 136.603 134.564 127.083 144.083C121.732 149.435 123 157.101 123 164L123 208C123 215.961 122.816 223.545 131 227.722C145.207 234.974 171.293 230 187 230L322 230L368 230C374.917 230 383.361 230.803 388.917 225.75C394.09 221.044 394 213.409 394 207L394 163C394 155.771 394.235 147.634 387.917 142.694C377.896 134.86 356.034 139 344 139z"/>
  <path style="fill:#aaa; stroke:none;" d="M138 230L138 387L139 387L139 241L158 244.528L187.778 238.861L201.972 244.028L211 235C211.483 236.886 212.034 238.284 213 240C221.807 255.641 229.214 233.98 241 235.944C248.102 237.128 254.734 243.85 262 243.833C268.191 243.819 274.134 234.983 280 236.194C286.279 237.491 288.184 249.151 295 249.167C302.707 249.184 308.348 236.855 316 236.111C320.952 235.63 324.839 241.869 330 241.833C334.884 241.799 340.462 236.773 345 235C350.307 246.917 366.902 261.531 377.278 245.583C379.552 242.087 378 234.081 378 230L138 230z"/>
  <path style="fill:#fff; stroke:none;" d="M210 235L201.389 243.806L188 238.639L159 244.111L139 241L139 354C139 365.177 134.834 386.902 142.417 395.917C151.06 406.192 178.742 401 191 401L330 401C330 388.193 325.069 363.863 337 355.472C346.024 349.126 366.281 353 377 353L331 401C342.437 401 364.097 405.217 372.972 396.917C381.955 388.515 378 368.21 378 357L378 246C373.329 247.452 367.844 252.858 363 253.028C357.989 253.203 347.889 238.952 345 235L329 241.444L315 235.722L294.389 248.778L281 235.806L263 243.444L241 235.5L218.083 245.972L210 235z"/>
  <path style="fill:#ccc; stroke:none;" d="M307 353L308 354L307 353M330 401L153 401L153 402L365 402L365 401L331 401L363 369L377 353C365.78 353 342.542 348.556 334.083 357.083C325.472 365.764 330 389.614 330 401z"/>
</svg>
